<svg width="16" height="17" viewBox="0 0 16 17" fill="none" xmlns="http://www.w3.org/2000/svg">
<g id="tick 1">
<path id="Vector" fill-rule="evenodd" clip-rule="evenodd" d="M8 0.5L9.99182 1.8121L12.3696 1.79622L13.3431 3.98797L15.3519 5.27336L14.9979 7.64888L16 9.82743L14.431 11.6325L14.1082 14.0126L11.8223 14.6741L10.277 16.5L8 15.808L5.72296 16.5L4.17772 14.6741L1.89183 14.0126L1.569 11.6325L0 9.82743L1.00206 7.64888L0.648112 5.27336L2.65693 3.98797L3.6304 1.79622L6.00818 1.8121L8 0.5Z" fill="#0095F6"/>
<path id="Vector_2" fill-rule="evenodd" clip-rule="evenodd" d="M10.4036 6.10526L7.18853 9.51874L6.12875 8.39354C5.8814 8.13092 5.46798 8.11854 5.20536 8.3659C4.94274 8.61325 4.93036 9.02667 5.17771 9.28929L6.71301 10.9194C6.9709 11.1932 7.40616 11.1932 7.66405 10.9194L11.3546 7.00101C11.6019 6.73839 11.5896 6.32497 11.3269 6.07761C11.0643 5.83026 10.6509 5.84264 10.4036 6.10526Z" fill="white"/>
</g>
</svg>
